<mxfile host="app.diagrams.net" modified="2024-02-24T13:19:28.185Z" agent="Mozilla/5.0 (Windows NT 10.0; Win64; x64) AppleWebKit/537.36 (KHTML, like Gecko) Chrome/109.0.0.0 Safari/537.36" version="23.1.2" etag="SC4ljEuz9h-FeY1kB4xA" type="github">
  <diagram name="第 1 页" id="z2M5c4vALER3vp60Q3NO">
    <mxGraphModel>
      <root>
        <mxCell id="0" />
        <mxCell id="1" parent="0" />
      </root>
    </mxGraphModel>
  </diagram>
</mxfile>
